<svg width="512" height="512" viewBox="0 0 512 512" fill="none" xmlns="http://www.w3.org/2000/svg">
  <!-- Background -->
  <rect width="512" height="512" rx="100" fill="url(#gradient)"/>
  
  <!-- Heart Icon -->
  <path d="M256 416L96 256C71.7 231.7 58.667 201.667 58 176C57.333 150.333 70 124 96 96C122 68 150.333 55.333 176 56C201.667 56.667 231.7 69.7 256 94C280.3 69.7 310.333 56.667 336 56C361.667 55.333 390 68 416 96C442 124 454.667 150.333 454 176C453.333 201.667 440.3 231.7 416 256L256 416Z" fill="white"/>
  
  <!-- Pulse Line -->
  <path d="M150 220L200 220L225 180L256 280L287 180L312 220L362 220" stroke="white" stroke-width="20" stroke-linecap="round" stroke-linejoin="round" fill="none"/>
  
  <!-- Gradient Definition -->
  <defs>
    <linearGradient id="gradient" x1="0" y1="0" x2="512" y2="512" gradientUnits="userSpaceOnUse">
      <stop offset="0%" stop-color="#667eea"/>
      <stop offset="100%" stop-color="#764ba2"/>
    </linearGradient>
  </defs>
</svg>
